<svg width="18" height="18" viewBox="0 0 18 18" fill="none" xmlns="http://www.w3.org/2000/svg">
<path fill-rule="evenodd" clip-rule="evenodd" d="M8.91758 0.667969C4.11349 0.667969 0.248535 4.53292 0.248535 9.33702C0.248535 13.1658 2.74089 16.4167 6.17239 17.5726C6.60584 17.6449 6.75032 17.392 6.75032 17.1392C6.75032 16.9224 6.75032 16.3806 6.75032 15.6582C4.33021 16.2 3.82452 14.5023 3.82452 14.5023C3.42719 13.4909 2.84925 13.2381 2.84925 13.2381C2.05459 12.6963 2.92149 12.6963 2.92149 12.6963C3.7884 12.7685 4.25797 13.5993 4.25797 13.5993C5.01651 14.9358 6.28075 14.5385 6.78644 14.3217C6.85869 13.7438 7.07541 13.3826 7.32826 13.1659C5.41384 12.9491 3.39107 12.1906 3.39107 8.86744C3.39107 7.9283 3.71615 7.13364 4.29409 6.5557C4.22185 6.33897 3.89676 5.47207 4.36633 4.24395C4.36633 4.24395 5.08875 4.02723 6.75032 5.14698C7.43662 4.96637 8.19516 4.85801 8.91758 4.85801C9.64001 4.85801 10.3985 4.96637 11.0848 5.14698C12.7464 4.02723 13.4688 4.24395 13.4688 4.24395C13.9384 5.43595 13.6494 6.30285 13.5411 6.5557C14.0829 7.16976 14.4441 7.9283 14.4441 8.86744C14.4441 12.1906 12.4213 12.913 10.4708 13.1297C10.7959 13.3826 11.0487 13.9244 11.0487 14.7191C11.0487 15.8749 11.0487 16.8141 11.0487 17.103C11.0487 17.3198 11.1932 17.6087 11.6628 17.5365C15.0943 16.4167 17.5866 13.1658 17.5866 9.33702C17.5866 4.53292 13.7217 0.667969 8.91758 0.667969Z" fill="#151515"/>
</svg>
