<svg width="24" height="24" viewBox="0 0 24 24" fill="none" xmlns="http://www.w3.org/2000/svg">
<path d="M3 15.8656H21C21.55 15.8656 22 16.3156 22 16.8656C22 17.4156 21.55 17.8656 21 17.8656H3C2.45 17.8656 2 17.4156 2 16.8656C2 16.3156 2.45 15.8656 3 15.8656ZM2.5 11.4356C2.86 11.6456 3.32 11.5156 3.53 11.1556L4 10.3356L4.48 11.1656C4.69 11.5256 5.15 11.6456 5.51 11.4456C5.87 11.2356 5.99 10.7856 5.79 10.4256L5.3 9.58557H6.25C6.66 9.58557 7 9.24557 7 8.83557C7 8.42557 6.66 8.08557 6.25 8.08557H5.3L5.77 7.26557C5.98 6.90557 5.86 6.44557 5.5 6.23557C5.14 6.03557 4.68 6.15557 4.47 6.51557L4 7.33557L3.53 6.51557C3.32 6.15557 2.86 6.03557 2.5 6.23557C2.14 6.44557 2.02 6.90557 2.23 7.26557L2.7 8.08557H1.75C1.34 8.08557 1 8.42557 1 8.83557C1 9.24557 1.34 9.58557 1.75 9.58557H2.7L2.22 10.4156C2.02 10.7756 2.14 11.2356 2.5 11.4356ZM10.5 11.4356C10.86 11.6456 11.32 11.5156 11.53 11.1556L12 10.3356L12.48 11.1656C12.69 11.5256 13.15 11.6456 13.51 11.4456C13.87 11.2356 13.99 10.7856 13.79 10.4256L13.31 9.59557H14.26C14.67 9.59557 15.01 9.25557 15.01 8.84557C15.01 8.43557 14.67 8.09557 14.26 8.09557H13.3L13.77 7.27557C13.98 6.91557 13.85 6.45557 13.5 6.24557C13.14 6.03557 12.68 6.16557 12.48 6.51557L12 7.33557L11.53 6.51557C11.32 6.15557 10.86 6.03557 10.51 6.24557C10.15 6.45557 10.03 6.91557 10.24 7.27557L10.71 8.09557H9.75C9.34 8.08557 9 8.42557 9 8.83557C9 9.24557 9.34 9.58557 9.75 9.58557H10.7L10.22 10.4156C10.02 10.7756 10.14 11.2356 10.5 11.4356ZM23 8.83557C23 8.42557 22.66 8.08557 22.25 8.08557H21.3L21.77 7.26557C21.98 6.90557 21.85 6.44557 21.5 6.23557C21.14 6.02557 20.68 6.15557 20.48 6.50557L20 7.33557L19.53 6.51557C19.32 6.15557 18.86 6.03557 18.51 6.24557C18.15 6.45557 18.03 6.91557 18.24 7.27557L18.71 8.09557H17.76C17.34 8.08557 17 8.42557 17 8.83557C17 9.24557 17.34 9.58557 17.75 9.58557H18.7L18.22 10.4156C18.01 10.7756 18.14 11.2356 18.5 11.4356C18.86 11.6456 19.32 11.5156 19.53 11.1556L20 10.3356L20.48 11.1656C20.69 11.5256 21.15 11.6456 21.51 11.4456C21.87 11.2356 21.99 10.7856 21.79 10.4256L21.31 9.59557H22.26C22.66 9.58557 23 9.24557 23 8.83557Z" fill="#F69250"/>
</svg>
