<svg width="127" height="23" viewBox="0 0 127 23" fill="none" xmlns="http://www.w3.org/2000/svg">
<path d="M48.2334 1.17163C49.7551 1.17163 50.9736 1.62085 51.8552 2.50806C53.3152 3.96802 53.304 6.09619 53.2983 7.00586V7.11255C53.2983 7.93237 52.6301 8.6062 51.8047 8.6062C51.406 8.6062 51.0298 8.44897 50.749 8.16821C50.4683 7.88184 50.311 7.51123 50.311 7.11255V6.99463C50.3167 6.41064 50.3223 5.19775 49.7439 4.61377C49.4351 4.31055 48.9297 4.15894 48.2334 4.15894C46.8633 4.15894 46.2119 4.65869 46.2063 7.47754C46.2063 7.6123 46.2063 7.73584 46.2063 7.84814C46.1726 9.3418 46.8127 9.70117 48.7837 10.4143C50.5806 11.0657 53.2927 12.0483 53.2703 15.6365C53.259 17.8433 52.6357 19.4548 51.4116 20.4319C50.356 21.2742 49.0588 21.4539 48.1604 21.4539C46.4421 21.4539 45.1057 20.9092 44.196 19.8367C42.7417 18.1296 43.0674 15.8218 43.1067 15.5691C43.1685 15.1704 43.3818 14.8279 43.7075 14.592C44.0332 14.3618 44.4263 14.2664 44.8193 14.3337C45.2124 14.3955 45.5605 14.6089 45.7908 14.929C46.0266 15.2546 46.1165 15.6477 46.0547 16.0464C46.0098 16.344 45.9873 17.3435 46.4758 17.905C46.7959 18.2756 47.363 18.4666 48.1604 18.4666C49.2722 18.4666 50.2717 18.2476 50.283 15.6252C50.2942 14.2551 49.6765 13.9182 47.7673 13.2219C45.9255 12.5537 43.1404 11.5486 43.219 7.78638C43.219 7.69653 43.219 7.60107 43.219 7.48877V7.47192C43.219 6.61841 43.2246 5.19214 43.7861 3.89502C44.3252 2.65405 45.5325 1.17163 48.2222 1.17163H48.2334ZM61.8625 17.2031C61.8288 17.0403 61.6828 16.9224 61.5143 16.9224H58.746C58.5775 16.9224 58.4315 17.0403 58.3979 17.2031C58.0778 18.6406 57.8363 19.7188 57.7521 20.1118C57.5724 20.9204 56.775 21.4258 55.9721 21.2517C55.1635 21.072 54.6581 20.2747 54.8322 19.4717C55.2028 17.7927 58.3136 3.81079 58.6674 2.22168L58.673 2.18799C58.8246 1.49731 59.4254 1.02002 60.1273 1.02002C60.8349 1.02002 61.4357 1.49731 61.5873 2.18799L65.4169 19.4268C65.591 20.2073 65.1474 20.999 64.4005 21.2236C64.2602 21.2629 64.1142 21.2854 63.9682 21.2854C63.2719 21.2854 62.6598 20.7969 62.5082 20.1174L61.8625 17.2031ZM61.0763 13.8901C61.0932 13.8733 61.1156 13.834 61.1044 13.7778L60.2902 10.1504C60.2003 9.86963 60.0207 9.95386 59.9701 10.1785L59.1559 13.7778C59.1447 13.834 59.1671 13.8733 59.184 13.8901C59.1952 13.907 59.2289 13.9407 59.2851 13.9407H60.9752C61.0314 13.9407 61.0651 13.907 61.0763 13.8901ZM75.9126 1.00879C76.3169 1.00317 76.6988 1.15479 76.9852 1.43555C77.2715 1.72192 77.4344 2.09814 77.4344 2.50244V19.7581C77.4344 20.4319 77.0188 21.0215 76.4012 21.218C76.2496 21.2686 76.0923 21.291 75.9407 21.291C75.3343 21.291 74.7952 20.9316 74.5594 20.3757L70.2581 10.0774C70.2525 10.0662 70.2525 10.0605 70.23 10.0605C70.2076 10.0662 70.2076 10.0774 70.2076 10.0886V19.7974C70.2076 20.2017 70.0447 20.5779 69.7584 20.8643C69.472 21.145 69.0901 21.2966 68.6858 21.291C67.8772 21.2742 67.2203 20.5891 67.2203 19.7581V2.54175C67.2203 1.8623 67.6526 1.26147 68.2759 1.07617C69.0115 0.851562 69.792 1.21655 70.0896 1.92407L74.3909 12.2224C74.3965 12.2336 74.4021 12.2393 74.4246 12.2393C74.4471 12.2336 74.4471 12.2224 74.4471 12.2112V2.54175C74.4471 1.71069 75.1041 1.02563 75.9126 1.00879ZM87.2001 2.54736C88.8117 4.05225 89.5642 6.48364 89.5642 10.1897C89.5642 14.4573 88.6264 17.4053 86.7004 19.2078C85.3864 20.4375 83.6569 21.0552 81.5681 21.0552C81.3154 21.0552 81.0571 21.0496 80.7988 21.0327C80.0183 20.9766 79.4062 20.3252 79.4062 19.5391V2.37329C79.4062 1.59277 80.0183 0.935791 80.7988 0.879639C83.7299 0.67749 85.7626 1.21094 87.2001 2.54736ZM84.6621 17.0234C85.9311 15.8386 86.5769 13.5364 86.5769 10.1897C86.5769 7.40454 86.1164 5.6189 85.1618 4.73169C84.6003 4.20947 83.758 3.91748 82.59 3.84448C82.5844 3.84448 82.5844 3.84448 82.5788 3.84448C82.5339 3.84448 82.489 3.86133 82.4553 3.89502C82.4328 3.91187 82.3935 3.95679 82.3935 4.02417V17.4165C82.3935 17.5737 82.4665 17.7197 82.59 17.8152C82.7136 17.9106 82.8652 17.9443 83.0112 17.905C83.6625 17.7422 84.2016 17.4502 84.6621 17.0234ZM99.1952 11.0881C100.998 11.7395 101.643 13.7778 101.643 15.4961C101.643 17.0403 101.43 19.2302 99.5489 20.387C98.162 21.2461 96.9042 21.2798 94.7254 21.2798C94.6244 21.2798 94.5177 21.2798 94.411 21.2798H94.0628C93.7035 21.2798 93.3216 21.2686 92.9286 21.2461C92.1424 21.2068 91.5304 20.5498 91.5304 19.7581V2.47998C91.5304 1.68262 92.148 1.02563 92.9454 0.986328C93.0858 0.980713 93.2374 0.969482 93.3834 0.963867L93.4171 0.958252C95.4049 0.845947 97.8756 0.705566 99.5545 2.26099C100.504 3.14258 100.998 4.40601 101.026 6.01758C101.059 8.07837 100.442 9.77979 99.1952 11.0881ZM94.5121 4.33301V9.86401C94.5121 9.9707 94.5345 10.0269 94.557 10.0437C94.5963 10.083 94.7367 10.0886 94.9725 10.0549C94.9781 10.0549 94.9837 10.0549 94.9894 10.0549C95.8541 10.01 96.5055 9.76855 96.9266 9.3418C97.6341 8.61743 98.0609 7.36523 98.0384 6.06812C98.0272 5.2876 97.8587 4.75977 97.5218 4.45093C96.994 3.95679 95.9327 3.88379 95.1185 3.88379C95.0624 3.88379 95.0118 3.88379 94.9557 3.88379C94.7142 3.8894 94.5121 4.08594 94.5121 4.33301ZM97.8194 17.613C98.263 17.2087 98.5606 16.3721 98.555 15.5916C98.5494 14.9121 98.3192 14.3394 97.9037 13.9744C97.3365 13.469 96.629 13.2107 95.8204 13.2107C95.4498 13.2107 95.0567 13.2668 94.6468 13.3735C94.6356 13.3735 94.63 13.3792 94.6244 13.3792C94.557 13.3904 94.5121 13.4409 94.5121 13.5027V18.0679C94.5121 18.2026 94.6412 18.2756 94.7647 18.2812C96.3202 18.343 97.0782 18.2981 97.8194 17.613ZM108.506 0.969482C110.073 0.969482 111.331 1.43555 112.251 2.36206C113.577 3.69287 113.61 5.43359 113.605 5.63013V17.3323C113.605 18.6855 112.493 21.2517 108.276 21.2517C105.884 21.2517 104.677 20.2354 104.087 19.3818C103.436 18.4329 103.402 17.4839 103.402 17.3042V5.70874C103.447 3.80518 104.839 0.969482 108.506 0.969482ZM110.623 17.2874V5.63013C110.606 5.13037 110.382 3.95679 108.506 3.95679C107.596 3.95679 107.012 4.23193 106.676 4.83276C106.44 5.25952 106.395 5.70874 106.389 5.77612V17.2761C106.406 17.5176 106.603 18.2644 108.276 18.2644C110.028 18.2644 110.573 17.6523 110.623 17.2874ZM116.492 21.2966C116.295 21.2966 116.104 21.2573 115.919 21.1843C115.161 20.8699 114.796 19.9939 115.11 19.2302L118.283 11.5767C118.395 11.3015 118.395 10.9927 118.283 10.7175C116.396 6.16919 115.307 3.53003 115.116 3.09766C114.796 2.3396 115.144 1.45801 115.902 1.13794C116.267 0.980713 116.677 0.975098 117.048 1.12109C117.418 1.27271 117.705 1.55347 117.862 1.91846C118.019 2.27783 118.71 3.93994 119.973 6.99463C119.996 7.0564 120.046 7.06201 120.074 7.06201C120.102 7.06201 120.153 7.0564 120.181 6.99463L122.276 1.9353C122.59 1.17725 123.466 0.812256 124.224 1.12671C124.988 1.44116 125.347 2.31714 125.033 3.08081L121.871 10.7231C121.759 10.9927 121.759 11.3015 121.871 11.5767C123.444 15.3838 124.909 18.927 125.033 19.2302C125.184 19.6008 125.184 20.0051 125.033 20.3757C124.881 20.7463 124.595 21.0327 124.224 21.1843C124.044 21.2573 123.848 21.2966 123.657 21.2966C123.045 21.2966 122.506 20.9316 122.276 20.3757C122.247 20.314 121.343 18.1184 120.181 15.3052C120.153 15.2434 120.102 15.2322 120.074 15.2322C120.046 15.2322 119.996 15.2434 119.973 15.3052L117.873 20.3757C117.637 20.9373 117.098 21.2966 116.492 21.2966Z" fill="#151515"/>
<path fill-rule="evenodd" clip-rule="evenodd" d="M30.2055 1.70618C31.9942 1.70618 33.4531 3.12819 33.5263 4.91104L33.5282 5.01081H33.6416V5.10799C33.6416 14.2322 26.1953 21.6279 17.0096 21.6279C7.91522 21.6286 0.525956 14.3799 0.379544 5.38202L0.376953 5.10928V5.01211H0.498747C0.619245 3.32772 2.0134 2.00094 3.71528 2.00094C5.49684 2.00094 6.94152 3.4547 6.94152 5.24857C6.94152 5.42284 6.92727 5.59387 6.90135 5.76036C7.28682 10.9165 11.6209 14.9804 16.9105 14.9804C22.248 14.9804 26.6119 10.844 26.9313 5.62302C26.8986 5.43432 26.8821 5.24315 26.882 5.05163C26.882 3.20398 28.3701 1.70618 30.2055 1.70618Z" fill="#151515"/>
</svg>
